<svg width="310" height="136" viewBox="0 0 310 136" fill="none" xmlns="http://www.w3.org/2000/svg">
<path fill-rule="evenodd" clip-rule="evenodd" d="M152 25.5C140.126 25.5 130.5 35.1259 130.5 47C130.5 58.8741 140.126 68.5 152 68.5C163.874 68.5 173.5 58.8741 173.5 47C173.5 35.1259 163.874 25.5 152 25.5ZM127.5 47C127.5 33.469 138.469 22.5 152 22.5C165.531 22.5 176.5 33.469 176.5 47C176.5 60.531 165.531 71.5 152 71.5C138.469 71.5 127.5 60.531 127.5 47Z" fill="white"/>
<path fill-rule="evenodd" clip-rule="evenodd" d="M167.939 62.9393C168.525 62.3536 169.475 62.3536 170.061 62.9393L182.061 74.9393C182.646 75.5251 182.646 76.4749 182.061 77.0607C181.475 77.6464 180.525 77.6464 179.939 77.0607L167.939 65.0607C167.354 64.4749 167.354 63.5251 167.939 62.9393Z" fill="white"/>
<path fill-rule="evenodd" clip-rule="evenodd" d="M144.439 39.9393C145.025 39.3536 145.975 39.3536 146.561 39.9393L158.561 51.9393C159.146 52.5251 159.146 53.4749 158.561 54.0607C157.975 54.6464 157.025 54.6464 156.439 54.0607L144.439 42.0607C143.854 41.4749 143.854 40.5251 144.439 39.9393Z" fill="white"/>
<path fill-rule="evenodd" clip-rule="evenodd" d="M158.561 39.9393C157.975 39.3536 157.025 39.3536 156.439 39.9393L144.439 51.9393C143.854 52.5251 143.854 53.4749 144.439 54.0607C145.025 54.6464 145.975 54.6464 146.561 54.0607L158.561 42.0607C159.146 41.4749 159.146 40.5251 158.561 39.9393Z" fill="white"/>
<path d="M95.7148 112.82H109.379V130H105.91V115.703H99.1836V130H95.7148V112.82ZM112.812 117.555H115.977V125.371L121.039 117.555H124.273V130H121.109V122.043L115.977 130H112.812V117.555ZM138.512 121.234L135.266 121.82C135.156 121.172 134.906 120.684 134.516 120.355C134.133 120.027 133.633 119.863 133.016 119.863C132.195 119.863 131.539 120.148 131.047 120.719C130.562 121.281 130.32 122.227 130.32 123.555C130.32 125.031 130.566 126.074 131.059 126.684C131.559 127.293 132.227 127.598 133.062 127.598C133.688 127.598 134.199 127.422 134.598 127.07C134.996 126.711 135.277 126.098 135.441 125.23L138.676 125.781C138.34 127.266 137.695 128.387 136.742 129.145C135.789 129.902 134.512 130.281 132.91 130.281C131.09 130.281 129.637 129.707 128.551 128.559C127.473 127.41 126.934 125.82 126.934 123.789C126.934 121.734 127.477 120.137 128.562 118.996C129.648 117.848 131.117 117.273 132.969 117.273C134.484 117.273 135.688 117.602 136.578 118.258C137.477 118.906 138.121 119.898 138.512 121.234ZM148.227 126.039L151.508 126.59C151.086 127.793 150.418 128.711 149.504 129.344C148.598 129.969 147.461 130.281 146.094 130.281C143.93 130.281 142.328 129.574 141.289 128.16C140.469 127.027 140.059 125.598 140.059 123.871C140.059 121.809 140.598 120.195 141.676 119.031C142.754 117.859 144.117 117.273 145.766 117.273C147.617 117.273 149.078 117.887 150.148 119.113C151.219 120.332 151.73 122.203 151.684 124.727H143.434C143.457 125.703 143.723 126.465 144.23 127.012C144.738 127.551 145.371 127.82 146.129 127.82C146.645 127.82 147.078 127.68 147.43 127.398C147.781 127.117 148.047 126.664 148.227 126.039ZM148.414 122.711C148.391 121.758 148.145 121.035 147.676 120.543C147.207 120.043 146.637 119.793 145.965 119.793C145.246 119.793 144.652 120.055 144.184 120.578C143.715 121.102 143.484 121.812 143.492 122.711H148.414ZM154.145 117.555H158.223L161.316 126.227L164.434 117.555H168.5V130H165.699V121.809L162.664 130H159.852L156.957 121.809V130H154.145V117.555ZM178.367 117.555H181.66V122.113H186.371V117.555H189.676V130H186.371V124.773H181.66V130H178.367V117.555ZM200.211 126.039L203.492 126.59C203.07 127.793 202.402 128.711 201.488 129.344C200.582 129.969 199.445 130.281 198.078 130.281C195.914 130.281 194.312 129.574 193.273 128.16C192.453 127.027 192.043 125.598 192.043 123.871C192.043 121.809 192.582 120.195 193.66 119.031C194.738 117.859 196.102 117.273 197.75 117.273C199.602 117.273 201.062 117.887 202.133 119.113C203.203 120.332 203.715 122.203 203.668 124.727H195.418C195.441 125.703 195.707 126.465 196.215 127.012C196.723 127.551 197.355 127.82 198.113 127.82C198.629 127.82 199.062 127.68 199.414 127.398C199.766 127.117 200.031 126.664 200.211 126.039ZM200.398 122.711C200.375 121.758 200.129 121.035 199.66 120.543C199.191 120.043 198.621 119.793 197.949 119.793C197.23 119.793 196.637 120.055 196.168 120.578C195.699 121.102 195.469 121.812 195.477 122.711H200.398ZM204.559 117.555H215.82V120.215H211.836V130H208.543V120.215H204.559V117.555Z" fill="white"/>
</svg>
