<svg width="24" height="24" viewBox="0 0 24 24" fill="none" xmlns="http://www.w3.org/2000/svg">
<path d="M18.828 6.58722C17.2659 5.02513 14.7332 5.02513 13.1711 6.58722L13.082 6.67633C13.3662 6.84417 13.634 7.05016 13.8782 7.29433C14.1224 7.53849 14.3284 7.80637 14.4962 8.09054L14.5853 8.00144C15.3664 7.22039 16.6327 7.22039 17.4137 8.00144C18.1948 8.78248 18.1948 10.0488 17.4137 10.8299L11.1213 17.1223C9.94975 18.2939 8.05025 18.2939 6.87868 17.1223C5.70711 15.9507 5.70711 14.0512 6.87868 12.8797L10.3427 9.41565C10.7332 9.02513 11.3664 9.02513 11.7569 9.41565C12.1475 9.80617 12.1475 10.4393 11.7569 10.8299L9.0503 13.5365C8.65977 13.927 8.65977 14.5602 9.0503 14.9507C9.44082 15.3412 10.074 15.3412 10.4645 14.9507L13.1711 12.2441C14.3427 11.0725 14.3427 9.17301 13.1711 8.00144C11.9996 6.82986 10.1001 6.82986 8.9285 8.00144L5.46447 11.4654C3.51184 13.4181 3.51184 16.5839 5.46447 18.5365C7.41709 20.4891 10.5829 20.4891 12.5355 18.5365L18.828 12.2441C20.3901 10.682 20.3901 8.14932 18.828 6.58722Z" fill="#D9DADD"/>
</svg>
