<svg width="20" height="20" viewBox="0 0 20 20" fill="none" xmlns="http://www.w3.org/2000/svg">
<path fill-rule="evenodd" clip-rule="evenodd" d="M11.6718 7.50071C11.1784 7.17106 10.5984 6.99512 10.0051 6.99512C9.20942 6.99512 8.44635 7.31119 7.88375 7.8738C7.32114 8.43641 7.00507 9.19947 7.00507 9.99512C7.00507 10.5885 7.18101 11.1685 7.51066 11.6618C7.8403 12.1552 8.30884 12.5397 8.85702 12.7668C9.40519 12.9938 10.0084 13.0532 10.5903 12.9375C11.1723 12.8217 11.7068 12.536 12.1264 12.1164C12.5459 11.6969 12.8317 11.1623 12.9474 10.5804C13.0632 9.99845 13.0038 9.39525 12.7767 8.84707C12.5496 8.29889 12.1651 7.83035 11.6718 7.50071ZM9.1736 10.5507C9.06371 10.3862 9.00507 10.1929 9.00507 9.99512C9.00507 9.7299 9.11042 9.47555 9.29796 9.28801C9.4855 9.10047 9.73985 8.99512 10.0051 8.99512C10.2028 8.99512 10.3962 9.05377 10.5606 9.16365C10.7251 9.27353 10.8533 9.42971 10.9289 9.61243C11.0046 9.79516 11.0244 9.99623 10.9859 10.1902C10.9473 10.3842 10.852 10.5624 10.7122 10.7022C10.5723 10.8421 10.3941 10.9373 10.2002 10.9759C10.0062 11.0145 9.80511 10.9947 9.62238 10.919C9.43966 10.8433 9.28348 10.7151 9.1736 10.5507Z" fill="#E7E8EA"/>
<path fill-rule="evenodd" clip-rule="evenodd" d="M9.02511 2.05519H11.0251C11.1977 2.05419 11.3676 2.09787 11.5183 2.18198C11.669 2.26609 11.7954 2.38777 11.8851 2.53519L12.7351 3.95519C12.8248 4.10261 12.9512 4.22429 13.1019 4.30841C13.2526 4.39252 13.4225 4.4362 13.5951 4.43519H15.7851C15.9596 4.43625 16.1308 4.48295 16.2817 4.57067C16.4326 4.65838 16.5579 4.78405 16.6451 4.93519L17.7051 6.85519C17.7929 7.00721 17.8391 7.17966 17.8391 7.35519C17.8391 7.53073 17.7929 7.70317 17.7051 7.85519L16.7051 9.54519C16.6173 9.69721 16.5711 9.86966 16.5711 10.0452C16.5711 10.2207 16.6173 10.3932 16.7051 10.5452L17.7051 12.2352C17.7929 12.3872 17.8391 12.5597 17.8391 12.7352C17.8391 12.9107 17.7929 13.0832 17.7051 13.2352L16.6451 15.0752C16.5579 15.2263 16.4326 15.352 16.2817 15.4397C16.1308 15.5274 15.9596 15.5741 15.7851 15.5752H13.5951C13.4225 15.5742 13.2526 15.6179 13.1019 15.702C12.9512 15.7861 12.8248 15.9078 12.7351 16.0552L11.8851 17.4552C11.7966 17.6045 11.6708 17.7281 11.52 17.8141C11.3692 17.9 11.1987 17.9452 11.0251 17.9452H9.02511C8.85156 17.9452 8.68102 17.9 8.53023 17.8141C8.37945 17.7281 8.25361 17.6045 8.16511 17.4552L7.27511 16.0352C7.18537 15.8878 7.059 15.7661 6.9083 15.682C6.7576 15.5979 6.58769 15.5542 6.41511 15.5552H4.22511C4.05059 15.5541 3.87939 15.5074 3.72852 15.4197C3.57765 15.332 3.45236 15.2063 3.36511 15.0552L2.29511 13.1552C2.20734 13.0032 2.16113 12.8307 2.16113 12.6552C2.16113 12.4797 2.20734 12.3072 2.29511 12.1552L3.29511 10.4652C3.38288 10.3132 3.42908 10.1407 3.42908 9.96519C3.42908 9.78966 3.38288 9.61721 3.29511 9.46519L2.29511 7.77519C2.20734 7.62317 2.16113 7.45073 2.16113 7.27519C2.16113 7.09966 2.20734 6.92721 2.29511 6.77519L3.36511 4.93519C3.45236 4.78405 3.57765 4.65838 3.72852 4.57067C3.87939 4.48295 4.05059 4.43625 4.22511 4.43519H6.41511C6.58769 4.4362 6.7576 4.39252 6.9083 4.30841C7.059 4.22429 7.18537 4.10261 7.27511 3.95519L8.16511 2.53519C8.25485 2.38777 8.38122 2.26609 8.53192 2.18198C8.68262 2.09787 8.85252 2.05419 9.02511 2.05519ZM11.0251 4.98519L10.4651 4.05519H9.54511L8.98511 4.98519C8.71798 5.42785 8.341 5.79396 7.89071 6.04802C7.44042 6.30207 6.93212 6.43544 6.41511 6.43519H4.80511L4.62511 6.75519L4.32511 7.26519L5.03511 8.49519C5.31544 8.96179 5.46354 9.49586 5.46354 10.0402C5.46354 10.5845 5.31544 11.1186 5.03511 11.5852L4.32511 12.7752L4.61511 13.2652L4.80511 13.6052H6.41511C6.93212 13.6049 7.44042 13.7383 7.89071 13.9924C8.341 14.2464 8.71798 14.6125 8.98511 15.0552L9.54511 15.9852H10.4651L11.0251 15.0552C11.2873 14.6051 11.6621 14.231 12.1127 13.9698C12.5634 13.7085 13.0742 13.5691 13.5951 13.5652H15.2051L15.3951 13.2352L15.6851 12.7352L14.9651 11.5452C14.6848 11.0786 14.5367 10.5445 14.5367 10.0002C14.5367 9.45586 14.6848 8.92179 14.9651 8.45519L15.6451 7.26519L15.3451 6.74519L15.1651 6.43519H13.5951C13.0781 6.43544 12.5698 6.30207 12.1195 6.04802C11.6692 5.79396 11.2922 5.42785 11.0251 4.98519Z" fill="#E7E8EA"/>
</svg>
