<svg width="120" height="88" viewBox="0 0 120 88" fill="none" xmlns="http://www.w3.org/2000/svg">
<rect width="120" height="88" fill="#F8F8F8"/>
<path fill-rule="evenodd" clip-rule="evenodd" d="M36.0811 32C29.4196 32 24 37.3832 24 43.9999C24 50.6168 29.4196 56 36.0811 56C38.5303 56 40.8911 55.2672 42.8862 53.9128L41.3027 52.0843C39.7546 53.0735 37.9503 53.6074 36.0811 53.6074C30.7477 53.6074 26.4087 49.2976 26.4087 43.9999C26.4087 38.7023 30.7477 34.3925 36.0811 34.3925C41.4146 34.3925 45.7536 38.7023 45.7536 43.9999C45.7536 44.6976 45.6747 45.3913 45.5257 46.066C45.2156 47.329 44.3291 47.7196 43.648 47.6667C42.9763 47.613 42.1785 47.1373 42.1732 45.9627V43.9999C42.1732 40.6634 39.4403 37.9488 36.0811 37.9488C32.7221 37.9488 29.989 40.6634 29.989 43.9999C29.989 47.3367 32.7221 50.0512 36.0811 50.0512C37.7835 50.0512 39.3241 49.3531 40.4306 48.2312C41.0822 49.2648 42.1611 49.9484 43.455 50.0516C43.5628 50.0602 43.6705 50.0644 43.7779 50.0644C44.6546 50.0644 45.5094 49.78 46.2147 49.2481C46.9427 48.6992 47.4727 47.919 47.7698 46.9751C47.8172 46.8244 47.9043 46.475 47.9053 46.4704C48.1034 45.6185 48.1623 44.8324 48.1623 43.9999C48.1623 37.3832 42.7427 32 36.0811 32ZM32.3978 43.9999C32.3978 41.9826 34.0502 40.3414 36.0811 40.3414C38.1121 40.3414 39.7645 41.9826 39.7645 43.9999C39.7645 46.0174 38.1121 47.6586 36.0811 47.6586C34.0502 47.6586 32.3978 46.0174 32.3978 43.9999Z" fill="#FF9E00"/>
<path fill-rule="evenodd" clip-rule="evenodd" d="M86.0497 49.6087H83.7831V48.7805C82.9075 49.5412 81.7634 49.9943 80.4175 49.9943C77.1987 49.9943 74.5856 47.4027 74.5856 44.2106C74.5856 41.0184 77.1987 38.4268 80.4175 38.4268C81.7634 38.4268 82.9075 38.88 83.7831 39.6407V38.8124H86.0497V49.6087ZM57.2779 49.6087H55.0115V38.8125H57.2779V39.412C57.7813 38.9427 58.7286 38.4284 59.9038 38.4268C61.4131 38.4268 62.7647 39.1085 63.6628 40.1775C64.561 39.1085 65.9126 38.4268 67.4219 38.4268C70.1195 38.4268 72.3143 40.6035 72.3143 43.2788V49.6087H70.0477V43.2788C70.0477 41.8429 68.8697 40.6747 67.4219 40.6747C65.974 40.6747 64.7961 41.8429 64.7961 43.2788V49.6087H62.5296V43.2788C62.5296 41.8429 61.3516 40.6747 59.9038 40.6747C58.4559 40.6747 57.2779 41.8429 57.2779 43.2788V49.6087ZM88.7582 49.6087H91.0247V38.8124H88.7582V49.6087ZM93.7335 49.6087H96V34.1854H93.7335V49.6087ZM80.4175 40.6444C82.4021 40.6444 83.966 42.2423 83.966 44.2106C83.966 46.1788 82.4021 47.7768 80.4175 47.7768C78.4328 47.7768 76.8216 46.1788 76.8216 44.2106C76.8216 42.2423 78.4328 40.6444 80.4175 40.6444ZM89.8933 33.7998C90.7525 33.7998 91.45 34.4916 91.45 35.3437C91.45 36.1958 90.7525 36.8877 89.8933 36.8877C89.034 36.8877 88.3365 36.1958 88.3365 35.3437C88.3365 34.4916 89.034 33.7998 89.8933 33.7998Z" fill="#005FF9"/>
</svg>
