<svg width="20" height="20" viewBox="0 0 20 20" fill="none" xmlns="http://www.w3.org/2000/svg">
<path fill-rule="evenodd" clip-rule="evenodd" d="M15.9865 4C15.4342 4 14.9865 4.44772 14.9865 5V12C14.9865 12.5523 15.4342 13 15.9865 13C16.5387 13 16.9865 12.5523 16.9865 12V5C16.9865 4.44772 16.5387 4 15.9865 4ZM9.18911 14.838L9.93864 13.8076L10.1128 13.5682L11.721 11.3573C11.8882 11.1361 11.9999 10.8501 11.9999 10.5765V8.00022C11.9999 6.89556 11.1042 6.00011 9.99954 6.00011L6.25055 6.00001C5.82607 6.00001 5.46615 6.24066 5.34424 6.57241L3.43304 5.98307L3.44868 5.93235L3.46699 5.88254C3.92013 4.64948 5.11619 4.00001 6.25055 4.00001H6.25061L9.99953 4.00011H9.9996C12.2085 4.00014 13.9999 5.79072 13.9999 8.00022V10.5765C13.9999 11.3499 13.7051 12.042 13.3301 12.5452L10.8065 16.0145L10.7559 16.0841L10.6995 16.1491C10.2275 16.6928 9.49583 17.047 8.68645 16.9952C8.20556 16.9806 7.64771 16.8576 7.13927 16.4923C6.58418 16.0936 6.2977 15.5572 6.16132 15.0989C6.03686 14.6805 6.02279 14.2862 6.03189 14H4.9991C4.46203 14 3.56806 13.8799 2.84924 13.2021C1.9776 12.3802 1.87365 11.2519 2.12934 10.3148C2.25756 9.84484 2.58927 8.74432 2.8772 7.79822C3.02363 7.31705 3.16254 6.86344 3.2648 6.53025L3.3872 6.13192L3.42105 6.02198L3.42995 5.9931L3.43224 5.98566L3.43283 5.98375L3.43298 5.98326L3.43303 5.98313C3.43304 5.98309 3.43304 5.98307 5.34424 6.57241C5.34424 6.57241 4.29623 9.97107 4.05881 10.8412C3.8214 11.7114 4.41611 12 4.9991 12H7.99988C8.29146 12 8.29303 12.3264 8.22474 12.7638C8.20609 12.8833 8.18223 13.011 8.15764 13.1426L8.15764 13.1426L8.15439 13.1601C8.11236 13.3851 8.06879 13.6209 8.04594 13.8457C8.04072 13.897 8.03658 13.9477 8.03379 13.9976C8.00298 14.5479 8.13561 14.9967 8.78663 14.9967C8.94147 15.0156 9.091 14.951 9.18911 14.838ZM10.0298 14.1453C10.0298 14.1453 10.0296 14.1426 10.0297 14.1367C10.03 14.1423 10.0299 14.1452 10.0298 14.1453Z" fill="#E7E8EA"/>
</svg>
